<?xml version="1.0" encoding="utf-8"?>
<!-- Generator: Adobe Illustrator 25.2.1, SVG Export Plug-In . SVG Version: 6.00 Build 0)  -->
<svg version="1.1" id="Layer_1" xmlns="http://www.w3.org/2000/svg" xmlns:xlink="http://www.w3.org/1999/xlink" x="0px" y="0px"
	 viewBox="0 0 260 80" style="enable-background:new 0 0 260 80;" xml:space="preserve">
<style type="text/css">
	.st0{fill:#0071BC;}
	.st1{fill:url(#SVGID_1_);}
	.st2{fill:url(#SVGID_2_);}
	.st3{fill:#035C8E;}
	.st4{fill:url(#SVGID_3_);}
	.st5{fill:url(#SVGID_4_);}
</style>
<g>
	<g>
		<path class="st0" d="M109.4,17.3c2.3,0,4.1,0.7,5.6,2.2c0.2,0.2,0.2,0.5,0,0.7l-1.8,1.9c-0.2,0.2-0.4,0.2-0.6,0
			c-0.9-0.8-2-1.2-3.1-1.2c-2.6,0-4.6,2.2-4.6,4.8c0,2.6,2,4.7,4.6,4.7c1.1,0,2.3-0.4,3.1-1.1c0.2-0.1,0.5-0.1,0.6,0l1.8,1.9
			c0.2,0.2,0.1,0.5,0,0.6c-1.6,1.5-3.6,2.3-5.7,2.3c-4.7,0-8.4-3.7-8.4-8.4S104.7,17.3,109.4,17.3z"/>
		<path class="st0" d="M115.7,33.3l7.3-15.7c0.1-0.1,0.2-0.3,0.4-0.3h0.2c0.2,0,0.3,0.1,0.4,0.3l7.3,15.7c0.1,0.3,0,0.6-0.4,0.6
			h-2.6c-0.4,0-0.6-0.1-0.8-0.6l-0.8-1.8h-6.3l-0.8,1.9c-0.1,0.3-0.4,0.6-0.8,0.6h-2.6C115.8,33.9,115.6,33.6,115.7,33.3z
			 M125.3,28.3l-1.8-3.8h0l-1.7,3.8H125.3z"/>
		<path class="st0" d="M133.2,18c0-0.2,0.2-0.4,0.4-0.4h7c2.8,0,5.1,2.3,5.1,5c0,2.1-1.4,3.9-3.4,4.7l3.2,5.9c0.2,0.3,0,0.7-0.4,0.7
			H142c-0.2,0-0.3-0.1-0.4-0.2l-3.1-6.2h-1.6v5.9c0,0.2-0.2,0.4-0.4,0.4h-2.8c-0.3,0-0.4-0.2-0.4-0.4V18z M140.3,24.5
			c1,0,1.8-0.9,1.8-1.9c0-1-0.8-1.8-1.8-1.8h-3.4v3.6H140.3z"/>
		<path class="st0" d="M148.8,18c0-0.2,0.2-0.4,0.4-0.4h5.4c2.7,0,5,1.9,5,4.3c0,1.8-1.6,3.1-2.7,3.7c1.2,0.5,3.1,1.7,3.1,3.8
			c0,2.6-2.3,4.5-5.1,4.5h-5.8c-0.3,0-0.4-0.2-0.4-0.4V18z M154.3,24.2c0.9,0,1.6-0.7,1.6-1.7c0-0.9-0.7-1.6-1.6-1.6h-1.8v3.3H154.3
			z M154.6,30.5c0.9,0,1.7-0.7,1.7-1.7c0-0.9-1-1.6-1.9-1.6h-1.9v3.3H154.6z"/>
		<path class="st0" d="M170.3,17.3c4.7,0,8.4,3.7,8.4,8.4s-3.7,8.4-8.4,8.4c-4.7,0-8.4-3.7-8.4-8.4S165.6,17.3,170.3,17.3z
			 M170.3,30.4c2.6,0,4.7-2.1,4.7-4.6c0-2.6-2.1-4.7-4.7-4.7c-2.5,0-4.6,2.1-4.6,4.7C165.6,28.3,167.7,30.4,170.3,30.4z"/>
		<path class="st0" d="M181.4,17.8c0-0.2,0.2-0.4,0.4-0.4h0.6l9.3,8.9h0V18c0-0.2,0.2-0.4,0.4-0.4h2.8c0.2,0,0.4,0.2,0.4,0.4v15.7
			c0,0.2-0.2,0.4-0.4,0.4h-0.4c-0.1,0-0.3-0.1-0.3-0.1l-9.2-9.2h0v8.7c0,0.2-0.2,0.4-0.4,0.4h-2.8c-0.2,0-0.4-0.2-0.4-0.4
			L181.4,17.8z"/>
	</g>
	<g>
		<path class="st0" d="M117.8,39.6c4.7,0,8.1,1.4,11.3,4.3c0.4,0.4,0.4,0.9,0,1.3l-3.6,3.8c-0.3,0.3-0.8,0.3-1.2,0
			c-1.7-1.5-4-2.4-6.3-2.4c-5.3,0-9.1,4.4-9.1,9.6c0,5.2,3.9,9.5,9.2,9.5c2.2,0,4.6-0.8,6.2-2.2c0.3-0.3,0.9-0.3,1.2,0l3.6,3.9
			c0.3,0.3,0.3,0.9,0,1.3c-3.2,3.1-7.2,4.5-11.3,4.5c-9.3,0-16.8-7.4-16.8-16.7S108.5,39.6,117.8,39.6z"/>
		<path class="st0" d="M214.8,39.6c4.7,0,8.1,1.4,11.3,4.3c0.4,0.4,0.4,0.9,0,1.3l-3.6,3.8c-0.3,0.3-0.8,0.3-1.2,0
			c-1.7-1.5-4-2.4-6.3-2.4c-5.3,0-9.1,4.4-9.1,9.6c0,5.2,3.9,9.5,9.2,9.5c2.2,0,4.6-0.8,6.2-2.2c0.3-0.3,0.9-0.3,1.2,0l3.6,3.9
			c0.3,0.3,0.3,0.9,0,1.3c-3.2,3.1-7.2,4.5-11.3,4.5c-9.3,0-16.8-7.4-16.8-16.7S205.5,39.6,214.8,39.6z"/>
		<path class="st0" d="M134.7,41c0-0.5,0.4-0.9,0.9-0.9h5.5c0.5,0,0.9,0.4,0.9,0.9v11.7h13.3V41c0-0.5,0.4-0.9,0.9-0.9h5.5
			c0.5,0,0.9,0.4,0.9,0.9v30.8c0,0.5-0.4,0.9-0.9,0.9h-5.5c-0.5,0-0.9-0.4-0.9-0.9V59.5H142v12.2c0,0.5-0.4,0.9-0.9,0.9h-5.5
			c-0.5,0-0.9-0.4-0.9-0.9V41z"/>
		<path class="st0" d="M170.6,41c0-0.5,0.4-0.9,0.9-0.9h19.3c0.5,0,0.9,0.4,0.9,0.9V46c0,0.5-0.4,0.9-0.9,0.9h-12.9v5.8h10.6
			c0.5,0,0.9,0.4,0.9,0.9v5.1c0,0.5-0.4,0.9-0.9,0.9h-10.6v6.3h12.9c0.5,0,0.9,0.4,0.9,0.9v5.1c0,0.5-0.4,0.9-0.9,0.9h-19.3
			c-0.5,0-0.9-0.4-0.9-0.9V41z"/>
		<path class="st0" d="M232.2,41.2c0-0.6,0.5-1.1,1.1-1.1h5.4c0.6,0,1.1,0.5,1.1,1.1v12.2l10.3-12.9c0.2-0.2,0.6-0.5,0.9-0.5h5.9
			c0.9,0,1.4,1,0.8,1.7l-10.9,13.6l11.9,15.5c0.5,0.7,0,1.7-0.9,1.7h-6.4c-0.3,0-0.7-0.2-0.8-0.3l-10.8-14.6v13.9
			c0,0.6-0.5,1.1-1.1,1.1h-5.4c-0.7,0-1.1-0.5-1.1-1.1V41.2z"/>
	</g>
	<linearGradient id="SVGID_1_" gradientUnits="userSpaceOnUse" x1="50.2329" y1="60.5616" x2="85.0911" y2="60.5616">
		<stop  offset="1.170322e-02" style="stop-color:#39AEFF"/>
		<stop  offset="1" style="stop-color:#3CFF53"/>
	</linearGradient>
	<path class="st1" d="M81.3,59.2c-2-4.9-4.8-10.8-8.1-17.1L60.8,54.4c0.4,2.1,0.7,4.2,0.7,6.3c0,7.5-4.4,13.9-10.8,16.9
		C49.9,77.9,50.2,79,51,79c15.8-0.5,28.5-2.6,32.5-4.6c0,0,0,0,0.1,0c0.1-0.1,0.3-0.1,0.4-0.2c0,0,0.1,0,0.1-0.1
		c0.1-0.1,0.2-0.1,0.2-0.2c0,0,0.1-0.1,0.1-0.1c0.1-0.1,0.1-0.1,0.2-0.2c0,0,0.1-0.1,0.1-0.1c0.1-0.1,0.1-0.2,0.2-0.2
		C85.7,72.2,84.4,66.9,81.3,59.2z"/>
	<linearGradient id="SVGID_2_" gradientUnits="userSpaceOnUse" x1="1" y1="40" x2="65.0835" y2="40">
		<stop  offset="1.170322e-02" style="stop-color:#39AEFF"/>
		<stop  offset="1" style="stop-color:#3CFF53"/>
	</linearGradient>
	<path class="st2" d="M35.4,77.6c-6.4-2.9-10.8-9.4-10.8-16.9c0-3.7,0.8-7.5,2.1-11.1c0.1-0.3,0.2-0.6,0.3-0.9
		c0.1-0.2,0.2-0.4,0.2-0.6c0.1-0.2,0.2-0.4,0.2-0.6c0.1-0.4,0.3-0.7,0.4-1.1c0.1-0.2,0.2-0.4,0.3-0.6c0.1-0.2,0.2-0.4,0.3-0.6
		c0.1-0.2,0.2-0.4,0.3-0.6c0.1-0.2,0.2-0.4,0.3-0.6c0.2-0.3,0.3-0.6,0.5-0.9c0.1-0.2,0.2-0.4,0.3-0.7c0.1-0.2,0.2-0.4,0.3-0.6
		c0.1-0.2,0.2-0.4,0.3-0.5c0.1-0.2,0.2-0.4,0.3-0.6c0.1-0.2,0.2-0.4,0.3-0.6c0.2-0.3,0.4-0.7,0.6-1c0.1-0.2,0.2-0.4,0.3-0.5
		c0.1-0.2,0.2-0.4,0.4-0.6c0.1-0.2,0.2-0.3,0.3-0.5c0.1-0.2,0.2-0.4,0.4-0.6c0.1-0.2,0.2-0.3,0.3-0.5c0.2-0.3,0.4-0.6,0.6-0.9
		c0.1-0.2,0.2-0.3,0.3-0.5c0.1-0.2,0.2-0.4,0.4-0.5c0.1-0.1,0.2-0.3,0.3-0.4c0.1-0.2,0.2-0.3,0.3-0.5c0.1-0.2,0.3-0.4,0.4-0.6
		c0.2-0.2,0.3-0.4,0.5-0.6c0.1-0.1,0.2-0.3,0.3-0.4c0.1-0.1,0.2-0.3,0.3-0.4c0.1-0.1,0.2-0.3,0.3-0.4c0.1-0.1,0.2-0.3,0.3-0.4
		c0.2-0.2,0.3-0.5,0.5-0.7c0.1-0.1,0.2-0.2,0.3-0.3c0.1-0.1,0.2-0.3,0.3-0.4c0.1-0.1,0.2-0.2,0.3-0.3c0.1-0.1,0.2-0.3,0.3-0.4
		c0.1-0.1,0.1-0.2,0.2-0.3c0.2-0.2,0.3-0.4,0.5-0.6c0.1-0.1,0.1-0.2,0.2-0.2c0.1-0.1,0.2-0.2,0.3-0.3c0.1-0.1,0.1-0.1,0.2-0.2
		c0.1-0.1,0.2-0.2,0.3-0.4c0,0,0.1-0.1,0.1-0.1c0.1-0.1,0.2-0.3,0.4-0.4c0,0,0.1-0.1,0.1-0.1c0.1-0.1,0.2-0.2,0.2-0.3
		c0,0,0.1-0.1,0.1-0.1c0.1-0.1,0.2-0.2,0.3-0.3c0.1-0.1,0.2-0.2,0.3-0.3c0,0,0.1-0.1,0.2-0.1c0.1,0,0.1-0.1,0.2-0.1
		c0.1,0,0.1,0,0.2-0.1c0.1,0,0.1,0,0.2-0.1c0.1,0,0.1,0,0.2,0c0.1,0,0.1,0,0.2,0c0.1,0,0.1,0,0.2,0c0.1,0,0.1,0,0.2,0
		c0.1,0,0.1,0,0.2,0.1c0.1,0,0.1,0,0.2,0.1c0.1,0,0.1,0.1,0.2,0.1c0.1,0,0.1,0.1,0.2,0.1c0.1,0.1,0.2,0.2,0.3,0.3
		c0.1,0.1,0.2,0.2,0.3,0.3c0,0,0.1,0.1,0.1,0.1c0.1,0.1,0.2,0.2,0.2,0.3c0,0,0.1,0.1,0.1,0.1c0.1,0.1,0.2,0.3,0.4,0.4
		c0,0,0.1,0.1,0.1,0.1c0.1,0.1,0.2,0.2,0.3,0.4C45.9,26.9,46,27,46,27c0.1,0.1,0.2,0.2,0.3,0.3c0.1,0.1,0.1,0.2,0.2,0.2
		c0.1,0.2,0.3,0.4,0.5,0.6c0.1,0.1,0.1,0.2,0.2,0.3c0.1,0.1,0.2,0.3,0.3,0.4c0.1,0.1,0.2,0.2,0.3,0.3c0.1,0.1,0.2,0.3,0.3,0.4
		c0.1,0.1,0.2,0.2,0.3,0.3c0.2,0.2,0.3,0.4,0.5,0.7c0.1,0.1,0.2,0.3,0.3,0.4c0.1,0.1,0.2,0.3,0.3,0.4c0.1,0.1,0.2,0.3,0.3,0.4
		c0.1,0.1,0.2,0.3,0.3,0.4c0.2,0.2,0.3,0.4,0.5,0.6c0.1,0.2,0.3,0.4,0.4,0.6c0.1,0.2,0.2,0.3,0.3,0.5c0.1,0.1,0.2,0.3,0.3,0.4
		c0.1,0.2,0.2,0.4,0.4,0.5c0.1,0.2,0.2,0.3,0.3,0.5c0.2,0.3,0.4,0.6,0.6,0.9c0.1,0.2,0.2,0.3,0.3,0.5c0.1,0.2,0.2,0.4,0.4,0.6
		c0.1,0.2,0.2,0.3,0.3,0.5c0.1,0.2,0.2,0.4,0.4,0.6c0.1,0.1,0.2,0.3,0.3,0.4l10.7-10.7C55.2,12.2,45.5,0.7,43,1c0,0,0,0,0,0
		c0,0,0,0,0,0c-2.8-0.4-14.8,14.5-26,33.9c-6,10.3-10.5,19.9-13.2,27c-2.4,6.2-3.3,10.5-2.5,11.5c0,0.1,0.1,0.2,0.2,0.2
		c0,0,0,0,0.1,0.1c0.1,0.1,0.1,0.1,0.2,0.2c0,0,0.1,0.1,0.1,0.1C1.9,74,1.9,74,2,74.1c0,0,0.1,0,0.1,0.1c0.1,0.1,0.2,0.1,0.4,0.2
		c0,0,0,0,0.1,0c4,2,16.7,4.1,32.5,4.6C35.9,79,36.1,77.9,35.4,77.6z"/>
	<path class="st3" d="M44,66.6l36-36l0,0l0.2-0.2c0.9-0.9,1.3-2,1.3-3.2c0-2.5-2-4.5-4.5-4.5c-1,0-1.9,0.3-2.7,0.9l-0.2,0.2
		c-0.2,0.2-0.4,0.4-0.6,0.6L44,53.8l-4.9-4.9c-0.9-1.1-2.2-1.7-3.5-1.7c-2.5,0-4.5,2-4.5,4.5c0,1.2,0.5,2.3,1.3,3.2l0.6,0.6l0,0
		L44,66.6z"/>
</g>
</svg>
